<?xml version="1.0" encoding="utf-8"?>
<!-- Generator: Adobe Illustrator 16.0.0, SVG Export Plug-In . SVG Version: 6.00 Build 0)  -->
<!DOCTYPE svg PUBLIC "-//W3C//DTD SVG 1.1//EN" "http://www.w3.org/Graphics/SVG/1.1/DTD/svg11.dtd">
<svg version="1.1" id="图层_1" xmlns="http://www.w3.org/2000/svg" xmlns:xlink="http://www.w3.org/1999/xlink" x="0px" y="0px"
	 width="1024px" height="1024px" viewBox="0 0 1024 1024" enable-background="new 0 0 1024 1024" xml:space="preserve">
<rect display="none" fill="#FFFFFF" stroke="#000000" stroke-miterlimit="10" width="1024" height="1024.001"/>
<g display="none">
	<g display="inline">
		<path fill="#5E616C" d="M511.999,84.028l144.062,144.061l102.426,102.425V185.663v-79.869h66.489v266.355v24.857l17.578,17.574
			l37.406,37.397h-8.351v60V964.82H711.873V605.25v-60h-60H372.131h-60v60v359.57H152.401V511.978v-60h-8.381L511.999,84.028
			 M512-0.822l-512.841,512.8h93.242v512.842h279.729V605.25h279.742v419.57h279.736V511.978h93.228L884.976,372.149V45.794H698.486
			v139.869L512-0.822L512-0.822z"/>
	</g>
</g>
<g display="none">
	<path display="inline" fill-rule="evenodd" clip-rule="evenodd" fill="#5E5F6B" d="M512.268,1.522
		c284.15,1.195,507.814,229.504,510.704,505.346c2.995,285.995-228.479,516.067-510.423,516.147
		C231.437,1023.089,2.162,794.993,1.65,513.824C1.136,231.097,229.309,2.166,512.268,1.522L512.268,1.522L512.268,1.522z
		 M512.529,963.105c248.479-0.104,449.545-201.221,450.234-450.342C963.457,263.78,761.722,61.756,512.448,61.806
		C263.383,61.85,62.366,263.253,61.931,512.408C61.5,756.533,258.647,962.088,512.529,963.105L512.529,963.105L512.529,963.105z"/>
	<path display="inline" fill-rule="evenodd" clip-rule="evenodd" fill="#5E5F6B" d="M257.696,800.155
		c-24.005-0.683-39.161-24.285-29.214-46.486c16.11-35.956,32.561-71.764,48.864-107.638
		c35.979-79.154,72.058-158.27,107.824-237.52c4.908-10.863,12.06-18.226,22.976-23.172
		c114.509-51.816,228.89-103.908,343.322-155.906c21.258-9.663,42.391-0.211,47.269,21.043c1.933,8.396-0.307,16.053-3.76,23.646
		c-47.229,103.774-94.399,207.572-141.585,311.361c-5.102,11.221-10.354,22.38-15.277,33.675
		c-3.803,8.713-9.862,14.801-18.55,18.742c-115.849,52.591-231.646,105.298-347.505,157.861
		C267.539,797.809,262.494,798.719,257.696,800.155L257.696,800.155L257.696,800.155z M715.514,309.5
		c-2.826,1.088-4.119,1.511-5.343,2.066c-89.841,40.826-179.7,81.627-269.446,122.656c-2.989,1.367-5.759,4.701-7.169,7.786
		c-34.009,74.402-67.826,148.898-101.675,223.378c-7.338,16.137-14.66,32.283-22.613,49.793c3.408-1.367,5.512-2.129,7.542-3.047
		c88.778-40.342,177.569-80.658,266.257-121.204c3.222-1.476,6.455-4.715,7.937-7.937c22.908-49.839,45.521-99.821,68.22-149.757
		C677.748,392.493,696.29,351.756,715.514,309.5L715.514,309.5L715.514,309.5z"/>
	<path display="inline" fill-rule="evenodd" clip-rule="evenodd" fill="#5E5F6B" d="M544.166,512.772
		c-0.155,17.709-14.632,31.723-32.395,31.371c-17.538-0.349-31.282-14.37-31.259-31.889c0.023-17.553,14.633-32.06,32.112-31.87
		C530.203,480.58,544.324,495.077,544.166,512.772L544.166,512.772L544.166,512.772z"/>
</g>
<g>
	<g>
		<path fill="#ED6A1A" d="M664.73,474.229h-3.58c70.926-38.022,119.111-111.705,119.111-196.388
			c0-123.665-102.61-223.876-229.143-223.876c-119.175,0-217.122,88.939-228.073,202.613c-28.93-43.116-78.74-71.688-135.429-71.688
			c-89.592,0-162.143,70.925-162.143,158.439c0,54.436,28.153,102.402,70.877,130.9h-3.877c-50.007,0-90.478,39.572-90.478,88.399
			v321.033c0,48.802,40.471,88.374,90.478,88.374H664.73c49.908,0,90.43-39.572,90.43-88.374V562.628
			C755.16,513.801,714.639,474.229,664.73,474.229z M277.8,474.229c33.999-22.42,59.052-56.751,68.084-97.234
			c21.029,41.443,55.015,75.232,96.483,97.234H277.8z M381.912,277.793c0-90.737,75.448-164.293,168.518-164.293
			c93.068,0,168.517,73.557,168.517,164.293S643.498,442.087,550.43,442.087C457.36,442.087,381.912,368.53,381.912,277.793z"/>
	</g>
	<g>
		<path fill="#ED6A1A" d="M795.938,653.955v157.181L1024,927.836V526.845L795.938,653.955z"/>
	</g>
	<g display="none">
		<path display="inline" fill="#5E616C" d="M186.184,246.5c55.571,0,100.782,43.322,100.782,96.573
			c0,53.25-45.21,96.572-100.782,96.572S85.402,396.323,85.402,343.073C85.402,289.823,130.612,246.5,186.184,246.5 M186.184,186.5
			c-88.796,0-160.782,70.101-160.782,156.573s71.985,156.572,160.782,156.572s160.782-70.101,160.782-156.572
			S274.98,186.5,186.184,186.5L186.184,186.5z"/>
	</g>
	<g>
		<ellipse fill="#ED6A1A" cx="550.412" cy="277.983" rx="125.039" ry="121.766"/>
	</g>
	<path fill="#ED6A1A" d="M717.707,919.402c0,6.753-5.476,12.228-12.227,12.228H55.952c-6.753,0-12.227-5.475-12.227-12.228V535.278
		c0-6.753,5.474-12.228,12.227-12.228H705.48c6.751,0,12.227,5.475,12.227,12.228V919.402z"/>
</g>
<g display="none">
	<g display="inline">
		<path fill="#5E616C" d="M187.119,244.889c34.647,0,66.649,16.867,85.605,45.119l22.959,34.218l-8.858,39.704
			c-5.423,24.307-20.536,45.689-42.555,60.21l-58.023,38.263l-57.1-38.088c-27.659-18.45-44.172-48.725-44.172-80.986
			c0-26.042,10.445-50.591,29.411-69.127C133.728,255.299,159.559,244.889,187.119,244.889 M664.232,534.229
			c16.779,0,30.43,12.74,30.43,28.399v321.033c0,15.646-13.65,28.374-30.43,28.374H91.976c-16.806,0-30.478-12.729-30.478-28.374
			V562.628c0-15.659,13.672-28.399,30.478-28.399h3.877h198.075H421.74h238.913H664.232 M550.621,53.964
			c-119.175,0-217.122,88.939-228.073,202.613c-28.93-43.116-78.74-71.688-135.429-71.688c-89.592,0-162.143,70.925-162.143,158.439
			c0,54.436,28.153,102.402,70.877,130.9h-3.877c-50.007,0-90.478,39.572-90.478,88.399v321.033
			c0,48.802,40.471,88.374,90.478,88.374h572.257c49.908,0,90.43-39.572,90.43-88.374V562.628c0-48.827-40.521-88.399-90.43-88.399
			h-3.58c70.926-38.022,119.111-111.705,119.111-196.388C779.764,154.176,677.153,53.964,550.621,53.964L550.621,53.964z
			 M550.412,442.087c-93.067,0-168.515-73.473-168.515-164.104s75.448-164.104,168.515-164.104
			c93.068,0,168.515,73.473,168.515,164.104S643.48,442.087,550.412,442.087L550.412,442.087z M277.302,474.229
			c33.999-22.42,59.052-56.751,68.084-97.234c21.029,41.443,55.015,75.232,96.483,97.234H277.302L277.302,474.229z"/>
	</g>
	<g display="inline">
		<path fill="#5E616C" d="M963.502,628.976v200.759L855.44,774.439v-85.235L963.502,628.976 M1023.502,526.845L795.44,653.955
			v157.181l228.062,116.7V526.845L1023.502,526.845z"/>
	</g>
	<g display="inline">
		<path fill="#5E616C" d="M185.686,246.5c55.571,0,100.782,43.322,100.782,96.573c0,53.25-45.21,96.572-100.782,96.572
			S84.904,396.323,84.904,343.073C84.904,289.823,130.114,246.5,185.686,246.5 M185.686,186.5
			c-88.796,0-160.782,70.101-160.782,156.573s71.985,156.572,160.782,156.572s160.782-70.101,160.782-156.572
			S274.482,186.5,185.686,186.5L185.686,186.5z"/>
	</g>
	<g display="inline">
		<path fill="#5E616C" d="M550.412,206.218c41.377,0,75.039,32.194,75.039,71.766s-33.662,71.766-75.039,71.766
			s-75.04-32.194-75.04-71.766S509.035,206.218,550.412,206.218 M550.412,156.218c-69.057,0-125.04,54.516-125.04,121.766
			s55.983,121.766,125.04,121.766c69.056,0,125.039-54.516,125.039-121.766S619.468,156.218,550.412,156.218L550.412,156.218z"/>
	</g>
</g>
<rect x="53.001" y="43.003" display="none" fill="#ED6A1A" width="60" height="60"/>
</svg>
