<?xml version="1.0" encoding="utf-8"?>
<!-- Generator: Adobe Illustrator 16.0.0, SVG Export Plug-In . SVG Version: 6.00 Build 0)  -->
<!DOCTYPE svg PUBLIC "-//W3C//DTD SVG 1.1//EN" "http://www.w3.org/Graphics/SVG/1.1/DTD/svg11.dtd">
<svg version="1.1" id="图层_1" xmlns="http://www.w3.org/2000/svg" xmlns:xlink="http://www.w3.org/1999/xlink" x="0px" y="0px"
	 width="1024px" height="1024px" viewBox="0 0 1024 1024" enable-background="new 0 0 1024 1024" xml:space="preserve">
<rect display="none" fill="#FFFFFF" stroke="#000000" stroke-miterlimit="10" width="1024" height="1024.001"/>
<g display="none">
	<path display="inline" fill-rule="evenodd" clip-rule="evenodd" fill="#5E616C" d="M879.852,653.402
		c-79.605,0-144.148-62.627-144.148-139.902c0-77.275,64.543-139.925,144.148-139.925c79.627,0,144.148,62.65,144.148,139.925
		C1024,590.775,959.479,653.402,879.852,653.402z M879.852,303.614c-79.605,0-144.148-62.629-144.148-139.904
		c0-77.275,64.543-139.925,144.148-139.925c79.627,0,144.148,62.649,144.148,139.925C1024,240.984,959.479,303.614,879.852,303.614z
		 M513.881,1003.215c-79.607,0-144.149-62.648-144.149-139.924c0-77.257,64.542-139.907,144.149-139.907
		c79.605,0,144.148,62.65,144.148,139.907C658.029,940.566,593.486,1003.215,513.881,1003.215z M513.881,653.402
		c-79.607,0-144.149-62.627-144.149-139.902c0-77.275,64.542-139.925,144.149-139.925c79.605,0,144.148,62.65,144.148,139.925
		C658.029,590.775,593.486,653.402,513.881,653.402z M513.881,303.614c-79.607,0-144.149-62.629-144.149-139.904
		c0-77.275,64.542-139.925,144.149-139.925c79.605,0,144.148,62.649,144.148,139.925
		C658.029,240.984,593.486,303.614,513.881,303.614z M147.909,1003.215c-79.626,0-144.147-62.648-144.147-139.924
		c0-77.257,64.521-139.907,144.147-139.907c79.606,0,144.15,62.65,144.15,139.907C292.06,940.566,227.516,1003.215,147.909,1003.215
		z M147.909,653.402c-79.626,0-144.147-62.627-144.147-139.902c0-77.275,64.521-139.925,144.147-139.925
		c79.606,0,144.15,62.65,144.15,139.925C292.06,590.775,227.516,653.402,147.909,653.402z M147.909,303.614
		c-79.626,0-144.147-62.629-144.147-139.904c0-77.275,64.521-139.925,144.147-139.925c79.606,0,144.15,62.649,144.15,139.925
		C292.06,240.984,227.516,303.614,147.909,303.614z M879.852,723.384c79.627,0,144.148,62.65,144.148,139.907
		c0,77.275-64.521,139.924-144.148,139.924c-79.605,0-144.148-62.648-144.148-139.924
		C735.703,786.034,800.246,723.384,879.852,723.384z"/>
</g>
<g>
	<path fill-rule="evenodd" clip-rule="evenodd" fill="#ED6A1A" d="M879.852,652.402c-79.605,0-144.148-62.627-144.148-139.902
		c0-77.275,64.543-139.925,144.148-139.925c79.627,0,144.148,62.65,144.148,139.925C1024,589.775,959.479,652.402,879.852,652.402z
		 M879.852,302.614c-79.605,0-144.148-62.629-144.148-139.904c0-77.275,64.543-139.925,144.148-139.925
		c79.627,0,144.148,62.649,144.148,139.925C1024,239.984,959.479,302.614,879.852,302.614z M513.881,1002.215
		c-79.607,0-144.149-62.648-144.149-139.924c0-77.257,64.542-139.907,144.149-139.907c79.605,0,144.148,62.65,144.148,139.907
		C658.029,939.566,593.486,1002.215,513.881,1002.215z M513.881,652.402c-79.607,0-144.149-62.627-144.149-139.902
		c0-77.275,64.542-139.925,144.149-139.925c79.605,0,144.148,62.65,144.148,139.925
		C658.029,589.775,593.486,652.402,513.881,652.402z M513.881,302.614c-79.607,0-144.149-62.629-144.149-139.904
		c0-77.275,64.542-139.925,144.149-139.925c79.605,0,144.148,62.649,144.148,139.925
		C658.029,239.984,593.486,302.614,513.881,302.614z M147.909,1002.215c-79.626,0-144.147-62.648-144.147-139.924
		c0-77.257,64.521-139.907,144.147-139.907c79.606,0,144.15,62.65,144.15,139.907C292.06,939.566,227.516,1002.215,147.909,1002.215
		z M147.909,652.402c-79.626,0-144.147-62.627-144.147-139.902c0-77.275,64.521-139.925,144.147-139.925
		c79.606,0,144.15,62.65,144.15,139.925C292.06,589.775,227.516,652.402,147.909,652.402z M147.909,302.614
		c-79.626,0-144.147-62.629-144.147-139.904c0-77.275,64.521-139.925,144.147-139.925c79.606,0,144.15,62.649,144.15,139.925
		C292.06,239.984,227.516,302.614,147.909,302.614z M879.852,722.384c79.627,0,144.148,62.65,144.148,139.907
		c0,77.275-64.521,139.924-144.148,139.924c-79.605,0-144.148-62.648-144.148-139.924
		C735.703,785.034,800.246,722.384,879.852,722.384z"/>
</g>
</svg>
