<?xml version="1.0" encoding="utf-8"?>
<!-- Generator: Adobe Illustrator 16.0.0, SVG Export Plug-In . SVG Version: 6.00 Build 0)  -->
<!DOCTYPE svg PUBLIC "-//W3C//DTD SVG 1.1//EN" "http://www.w3.org/Graphics/SVG/1.1/DTD/svg11.dtd">
<svg version="1.1" id="图层_1" xmlns="http://www.w3.org/2000/svg" xmlns:xlink="http://www.w3.org/1999/xlink" x="0px" y="0px"
	 width="1024px" height="1024px" viewBox="0 0 1024 1024" enable-background="new 0 0 1024 1024" xml:space="preserve">
<rect display="none" fill="#FFFFFF" stroke="#000000" stroke-miterlimit="10" width="1024" height="1024.001"/>
<g display="none">
	<g display="inline">
		<path fill="#5E616C" d="M511.999,84.028l144.062,144.061l102.426,102.425V185.663v-79.869h66.489v266.355v24.857l17.578,17.574
			l37.406,37.397h-8.351v60V964.82H711.873V605.25v-60h-60H372.131h-60v60v359.57H152.401V511.978v-60h-8.381L511.999,84.028
			 M512-0.822l-512.841,512.8h93.242v512.842h279.729V605.25h279.742v419.57h279.736V511.978h93.228L884.976,372.149V45.794H698.486
			v139.869L512-0.822L512-0.822z"/>
	</g>
</g>
<g>
	<g>
		<path fill-rule="evenodd" clip-rule="evenodd" fill="#ED6A1A" d="M710.171,311.566c-89.841,40.826-179.7,81.627-269.446,122.656
			c-2.989,1.367-5.759,4.701-7.169,7.786c-34.009,74.402-67.826,148.898-101.675,223.378c-7.338,16.137-14.66,32.283-22.613,49.793
			c3.408-1.367,5.512-2.129,7.542-3.047c88.778-40.342,177.569-80.658,266.257-121.204c3.222-1.476,6.455-4.715,7.937-7.937
			c22.908-49.839,45.521-99.821,68.22-149.757c18.525-40.742,37.067-81.479,56.291-123.735
			C712.688,310.588,711.395,311.011,710.171,311.566z M511.771,544.144c-17.538-0.349-31.282-14.37-31.259-31.889
			c0.023-17.553,14.633-32.06,32.112-31.87c17.578,0.195,31.699,14.692,31.541,32.388
			C544.011,530.481,529.534,544.495,511.771,544.144z"/>
		<path fill-rule="evenodd" clip-rule="evenodd" fill="#ED6A1A" d="M1022.972,506.868c-2.89-275.842-226.554-504.15-510.704-505.346
			C229.309,2.166,1.136,231.097,1.65,513.824c0.511,281.169,229.786,509.265,510.898,509.191
			C794.493,1022.936,1025.967,792.863,1022.972,506.868z M794.977,274.122c-47.229,103.774-94.399,207.572-141.585,311.361
			c-5.102,11.221-10.354,22.38-15.277,33.675c-3.803,8.713-9.862,14.801-18.55,18.742
			c-115.849,52.591-231.646,105.298-347.505,157.861c-4.521,2.047-9.565,2.957-14.363,4.394
			c-24.005-0.683-39.161-24.285-29.214-46.486c16.11-35.956,32.561-71.764,48.864-107.638
			c35.979-79.154,72.058-158.27,107.824-237.52c4.908-10.863,12.06-18.226,22.976-23.172
			c114.509-51.816,228.89-103.908,343.322-155.906c21.258-9.663,42.391-0.211,47.269,21.043
			C800.669,258.872,798.43,266.528,794.977,274.122z"/>
	</g>
</g>
</svg>
