<?xml version="1.0" encoding="utf-8"?>
<!-- Generator: Adobe Illustrator 16.0.0, SVG Export Plug-In . SVG Version: 6.00 Build 0)  -->
<!DOCTYPE svg PUBLIC "-//W3C//DTD SVG 1.1//EN" "http://www.w3.org/Graphics/SVG/1.1/DTD/svg11.dtd">
<svg version="1.1" id="图层_1" xmlns="http://www.w3.org/2000/svg" xmlns:xlink="http://www.w3.org/1999/xlink" x="0px" y="0px"
	 width="1024px" height="1024px" viewBox="0 0 1024 1024" enable-background="new 0 0 1024 1024" xml:space="preserve">
<rect display="none" fill="#FFFFFF" stroke="#000000" stroke-miterlimit="10" width="1024" height="1024.001"/>
<g>
	<g>
		<path fill="#5E616C" d="M511.999,84.028l144.062,144.061l102.426,102.425V185.663v-79.869h66.489v266.355v24.857l17.578,17.574
			l37.406,37.397h-8.351v60V964.82H711.873V605.25v-60h-60H372.131h-60v60v359.57H152.401V511.978v-60h-8.381L511.999,84.028
			 M512-0.822l-512.841,512.8h93.242v512.842h279.729V605.25h279.742v419.57h279.736V511.978h93.228L884.976,372.149V45.794H698.486
			v139.869L512-0.822L512-0.822z"/>
	</g>
</g>
</svg>
