<?xml version="1.0" encoding="utf-8"?>
<!-- Generator: Adobe Illustrator 16.0.0, SVG Export Plug-In . SVG Version: 6.00 Build 0)  -->
<!DOCTYPE svg PUBLIC "-//W3C//DTD SVG 1.1//EN" "http://www.w3.org/Graphics/SVG/1.1/DTD/svg11.dtd">
<svg version="1.1" id="图层_1" xmlns="http://www.w3.org/2000/svg" xmlns:xlink="http://www.w3.org/1999/xlink" x="0px" y="0px"
	 width="1024px" height="1024px" viewBox="0 0 1024 1024" enable-background="new 0 0 1024 1024" xml:space="preserve">
<rect display="none" fill="#FFFFFF" stroke="#000000" stroke-miterlimit="10" width="1024" height="1024.001"/>
<g display="none">
	<g display="inline">
		<path fill="#5E616C" d="M511.999,84.028l144.062,144.061l102.426,102.425V185.663v-79.869h66.489v266.355v24.857l17.578,17.574
			l37.406,37.397h-8.351v60V964.82H711.873V605.25v-60h-60H372.131h-60v60v359.57H152.401V511.978v-60h-8.381L511.999,84.028
			 M512-0.822l-512.841,512.8h93.242v512.842h279.729V605.25h279.742v419.57h279.736V511.978h93.228L884.976,372.149V45.794H698.486
			v139.869L512-0.822L512-0.822z"/>
	</g>
</g>
<g display="none">
	<path display="inline" fill-rule="evenodd" clip-rule="evenodd" fill="#5E5F6B" d="M512.268,1.522
		c284.15,1.195,507.814,229.504,510.704,505.346c2.995,285.995-228.479,516.067-510.423,516.147
		C231.437,1023.089,2.162,794.993,1.65,513.824C1.136,231.097,229.309,2.166,512.268,1.522L512.268,1.522L512.268,1.522z
		 M512.529,963.105c248.479-0.104,449.545-201.221,450.234-450.342C963.457,263.78,761.722,61.756,512.448,61.806
		C263.383,61.85,62.366,263.253,61.931,512.408C61.5,756.533,258.647,962.088,512.529,963.105L512.529,963.105L512.529,963.105z"/>
	<path display="inline" fill-rule="evenodd" clip-rule="evenodd" fill="#5E5F6B" d="M257.696,800.155
		c-24.005-0.683-39.161-24.285-29.214-46.486c16.11-35.956,32.561-71.764,48.864-107.638
		c35.979-79.154,72.058-158.27,107.824-237.52c4.908-10.863,12.06-18.226,22.976-23.172
		c114.509-51.816,228.89-103.908,343.322-155.906c21.258-9.663,42.391-0.211,47.269,21.043c1.933,8.396-0.307,16.053-3.76,23.646
		c-47.229,103.774-94.399,207.572-141.585,311.361c-5.102,11.221-10.354,22.38-15.277,33.675
		c-3.803,8.713-9.862,14.801-18.55,18.742c-115.849,52.591-231.646,105.298-347.505,157.861
		C267.539,797.809,262.494,798.719,257.696,800.155L257.696,800.155L257.696,800.155z M715.514,309.5
		c-2.826,1.088-4.119,1.511-5.343,2.066c-89.841,40.826-179.7,81.627-269.446,122.656c-2.989,1.367-5.759,4.701-7.169,7.786
		c-34.009,74.402-67.826,148.898-101.675,223.378c-7.338,16.137-14.66,32.283-22.613,49.793c3.408-1.367,5.512-2.129,7.542-3.047
		c88.778-40.342,177.569-80.658,266.257-121.204c3.222-1.476,6.455-4.715,7.937-7.937c22.908-49.839,45.521-99.821,68.22-149.757
		C677.748,392.493,696.29,351.756,715.514,309.5L715.514,309.5L715.514,309.5z"/>
	<path display="inline" fill-rule="evenodd" clip-rule="evenodd" fill="#5E5F6B" d="M544.166,512.772
		c-0.155,17.709-14.632,31.723-32.395,31.371c-17.538-0.349-31.282-14.37-31.259-31.889c0.023-17.553,14.633-32.06,32.112-31.87
		C530.203,480.58,544.324,495.077,544.166,512.772L544.166,512.772L544.166,512.772z"/>
</g>
<g display="none">
	<g display="inline">
		<path fill="#5E616C" d="M512.521,520.551c60.294,0,118.778,12.367,173.829,36.758c53.393,23.655,101.402,57.582,142.695,100.837
			c41.479,43.45,74.063,94.089,96.843,150.51C945.744,857.832,957.38,909.619,960.6,963H64.401
			c3.219-53.381,14.856-105.167,34.714-154.344c22.783-56.42,55.368-107.059,96.851-150.509
			c41.297-43.256,89.311-77.183,142.709-100.839C393.73,532.918,452.221,520.551,512.521,520.551 M512.521,460.551
			c-281.152,0-509.042,238.713-509.042,533.172c0,9.759,0.278,19.559,0.815,29.276h1016.433c0.557-9.718,0.795-19.518,0.795-29.276
			C1021.521,699.265,793.65,460.551,512.521,460.551L512.521,460.551z"/>
	</g>
	<g display="inline">
		<path fill="#5E616C" d="M516.277,61c38.964,0,75.577,15.041,103.097,42.353c27.399,27.193,42.488,63.309,42.488,101.695
			c0,38.392-15.091,74.517-42.494,101.721c-27.521,27.32-64.133,42.367-103.091,42.367c-38.943,0-75.539-15.043-103.046-42.36
			c-27.393-27.203-42.479-63.331-42.479-101.728c0-38.391,15.084-74.51,42.473-101.702C440.731,76.039,477.329,61,516.277,61
			 M516.277,1C402.779,1,310.752,92.36,310.752,205.047c0,112.688,92.027,204.087,205.525,204.087
			c113.519,0,205.585-91.4,205.585-204.087C721.862,92.36,629.796,1,516.277,1L516.277,1z"/>
	</g>
</g>
<path fill="#EF7F30" d="M512,2.667C230.703,2.667,2.667,230.703,2.667,512S230.703,1021.333,512,1021.333
	S1021.333,793.297,1021.333,512S793.297,2.667,512,2.667z M800.51,598.396c-14.734,48.869-35.383,85.543-61.972,110.124
	c-26.562,24.454-53.709,32.596-81.399,24.261c-8.361-2.521-16.101-6.657-23.27-12.285c-7.188-5.639-14.037-13.085-20.382-22.3
	c-9.389,2.56-16.787,4.034-22.234,4.566c-5.391,0.413-10.194,0.046-14.604-1.282c-22.3-6.713-53.188-24.747-92.833-54.297
	c-39.582-29.404-75.224-62.641-106.92-99.49c-17.297-20.189-32.352-39.451-45.083-57.652
	c-12.845-18.246-20.405-30.944-22.875-38.279c-2.251-6.069-2.834-14.018-1.972-24.058c0.981-10.021,3.434-21.748,7.505-35.253
	c2.613-8.674,5.845-13.799,9.6-15.541c3.8-1.853,10.021-1.412,18.594,1.165c10.553,3.172,22.748,9.223,36.514,18.043
	c13.881,8.857,24.778,17.65,32.723,26.259c7.678,9.141,10.324,20.245,7.835,33.273c-0.72,3.97-1.027,6.996-0.857,8.838
	c0.307,8.114,3.975,17.017,11.011,26.671c7.005,9.783,20.116,23.545,39.283,41.533c17.091,15.688,32.158,28.13,45.143,37.546
	c12.868,9.39,23.769,15.413,32.553,18.063c6.72,2.018,14.018,1.219,22.16-2.32c8.114-3.429,13.121-4.914,14.981-4.354
	c3.081,0.926,9.417,5.354,19.016,13.277c9.701,7.948,17.952,16.42,24.783,25.534c7.959,11.029,14.028,21.49,18.355,31.402
	c4.181,10.002,5.731,16.823,4.566,20.665c-0.725,2.422-2.338,4.924-5.016,7.474c-2.714,2.659-6.381,5.271-11.167,8.022
	c3.988,5.501,7.867,9.682,11.847,12.79c4.006,2.998,8.361,5.271,13.092,6.693c21.876,6.583,43.478-0.688,64.657-21.986
	c21.134-21.198,37.985-52.886,50.676-94.96c10.323-34.264,13.651-69.553,9.947-105.77c-3.713-36.216-14.185-70.277-31.467-102.441
	c-17.063-32.072-39.7-59.624-67.967-82.738c-28.277-23.114-59.56-39.847-93.961-50.198c-34.73-10.461-70.167-13.799-106.305-10.076
	c-36.125,3.74-70.218,14.211-102.387,31.476c-32.365,17.448-59.999,39.92-82.756,67.692c-22.761,27.781-39.411,59.184-49.937,94.107
	c-10.493,34.804-13.858,70.214-10.218,106.283c3.621,36.078,14.106,70.13,31.278,102.258c17.31,32.044,40.044,59.604,68.252,82.6
	c28.198,22.968,59.472,39.701,94.098,50.116c31.549,9.499,63.099,13,94.693,10.406c31.559-2.467,66.821-11.635,106.017-27.158
	c0.027,3.485,0.109,6.4-0.018,8.757c-0.185,2.21-0.35,3.97-0.68,5.061c-1.018,3.393-3.363,6.768-7.078,9.976
	c-3.612,3.219-8.463,6.189-14.402,8.83c-28.066,13.11-57.81,20.336-89.222,21.912c-31.292,1.604-63.698-2.648-96.894-12.644
	c-37.812-11.378-72.184-29.751-103.257-55.14c-30.985-25.269-55.842-55.378-74.546-90.366
	c-18.892-35.144-30.439-72.405-34.46-111.948c-4.062-39.436-0.293-78.19,11.228-116.405c11.584-38.435,29.899-72.946,54.966-103.615
	c25.099-30.779,55.218-55.498,90.751-74.385c35.698-18.961,73.198-30.44,112.549-34.529c39.37-4.08,78.034-0.349,116.075,11.094
	c38.021,11.442,72.515,29.853,103.468,55.214c30.99,25.259,55.92,55.525,74.807,90.687c18.796,35.106,30.128,72.661,34.052,112.536
	C815.453,522.149,811.832,560.823,800.51,598.396z M337.699,360.754c10.865-14.211,19.804-23.15,26.855-26.644
	c7.042-3.521,15.495-3.74,25.283-0.788c17.044,5.125,32.406,14.193,46.223,27.212c13.895,13.157,19.479,24.068,16.825,32.86
	c-1.022,3.402-3.145,7.674-6.299,12.956c-3.25,5.244-7.743,11.8-13.368,19.694c-10.053-14.771-23.289-27.726-39.663-39.013
	C377.139,375.865,358.581,367.035,337.699,360.754z M592.95,570.67c11.021-9.14,19.391-15.009,25.194-17.566
	c5.813-2.576,11.122-3.126,16.092-1.632c13.074,3.933,26.589,15.183,40.352,33.952c13.788,18.63,18.896,33.941,15.284,45.916
	c-1.092,3.621-3.833,7.949-8.124,13.011c-4.383,5.024-10.113,10.497-17.338,16.575c-6.831-19.904-16.312-37.36-28.157-52.554
	C624.298,593.152,609.838,580.665,592.95,570.67z"/>
</svg>
