<?xml version="1.0" encoding="utf-8"?>
<!-- Generator: Adobe Illustrator 16.0.0, SVG Export Plug-In . SVG Version: 6.00 Build 0)  -->
<!DOCTYPE svg PUBLIC "-//W3C//DTD SVG 1.1//EN" "http://www.w3.org/Graphics/SVG/1.1/DTD/svg11.dtd">
<svg version="1.1" id="图层_1" xmlns="http://www.w3.org/2000/svg" xmlns:xlink="http://www.w3.org/1999/xlink" x="0px" y="0px"
	 width="1024px" height="1024px" viewBox="0 0 1024 1024" enable-background="new 0 0 1024 1024" xml:space="preserve">
<rect display="none" fill="#FFFFFF" stroke="#000000" stroke-miterlimit="10" width="1024" height="1024.001"/>
<g display="none">
	<g display="inline">
		<path fill="#5E616C" d="M511.999,84.028l144.062,144.061l102.426,102.425V185.663v-79.869h66.489v266.355v24.857l17.578,17.574
			l37.406,37.397h-8.351v60V964.82H711.873V605.25v-60h-60H372.131h-60v60v359.57H152.401V511.978v-60h-8.381L511.999,84.028
			 M512-0.822l-512.841,512.8h93.242v512.842h279.729V605.25h279.742v419.57h279.736V511.978h93.228L884.976,372.149V45.794H698.486
			v139.869L512-0.822L512-0.822z"/>
	</g>
</g>
<g>
	<path fill-rule="evenodd" clip-rule="evenodd" fill="#5E5F6B" d="M512.268,1.522c284.15,1.195,507.814,229.504,510.704,505.346
		c2.995,285.995-228.479,516.067-510.423,516.147C231.437,1023.089,2.162,794.993,1.65,513.824
		C1.136,231.097,229.309,2.166,512.268,1.522L512.268,1.522L512.268,1.522z M512.529,963.105
		c248.479-0.104,449.545-201.221,450.234-450.342C963.457,263.78,761.722,61.756,512.448,61.806
		C263.383,61.85,62.366,263.253,61.931,512.408C61.5,756.533,258.647,962.088,512.529,963.105L512.529,963.105L512.529,963.105z"/>
	<path display="none" fill-rule="evenodd" clip-rule="evenodd" fill="#5E5F6B" d="M257.696,800.155
		c-24.005-0.683-39.161-24.285-29.214-46.486c16.11-35.956,32.561-71.764,48.864-107.638
		c35.979-79.154,72.058-158.27,107.824-237.52c4.908-10.863,12.06-18.226,22.976-23.172
		c114.509-51.816,228.89-103.908,343.322-155.906c21.258-9.663,42.391-0.211,47.269,21.043c1.933,8.396-0.307,16.053-3.76,23.646
		c-47.229,103.774-94.399,207.572-141.585,311.361c-5.102,11.221-10.354,22.38-15.277,33.675
		c-3.803,8.713-9.862,14.801-18.55,18.742c-115.849,52.591-231.646,105.298-347.505,157.861
		C267.539,797.809,262.494,798.719,257.696,800.155L257.696,800.155L257.696,800.155z M715.514,309.5
		c-2.826,1.088-4.119,1.511-5.343,2.066c-89.841,40.826-179.7,81.627-269.446,122.656c-2.989,1.367-5.759,4.701-7.169,7.786
		c-34.009,74.402-67.826,148.898-101.675,223.378c-7.338,16.137-14.66,32.283-22.613,49.793c3.408-1.367,5.512-2.129,7.542-3.047
		c88.778-40.342,177.569-80.658,266.257-121.204c3.222-1.476,6.455-4.715,7.937-7.937c22.908-49.839,45.521-99.821,68.22-149.757
		C677.748,392.493,696.29,351.756,715.514,309.5L715.514,309.5L715.514,309.5z"/>
	<path display="none" fill-rule="evenodd" clip-rule="evenodd" fill="#5E5F6B" d="M544.166,512.772
		c-0.155,17.709-14.632,31.723-32.395,31.371c-17.538-0.349-31.282-14.37-31.259-31.889c0.023-17.553,14.633-32.06,32.112-31.87
		C530.203,480.58,544.324,495.077,544.166,512.772L544.166,512.772L544.166,512.772z"/>
</g>
<g>
	<g>
		<g>
			<path fill="#5E5F6B" d="M513.23,233.118c25.185,0.122,50.103,3.369,74.063,9.65c3.293,0.863,6.572,1.785,9.832,2.763
				l-84.808,147.286l-84.942-146.73c3.687-1.136,7.396-2.199,11.125-3.187C462.717,236.483,487.858,233.192,513.23,233.118
				 M513.285,173.118c-62.358,0.142-120.855,16.366-171.579,44.741l170.75,294.958L682.888,216.83
				C632.827,189.251,575.137,173.378,513.285,173.118L513.285,173.118z"/>
		</g>
	</g>
	<g>
		<path fill="#5E5F6B" d="M409.202,571.324l-0.269,0.467h0.804l-85.742,148.846c-20.692-19.331-38.59-41.614-52.951-66.1
			c-12.536-21.374-22.282-44.252-28.968-67.999c-1.398-4.968-2.664-9.976-3.793-15.016L409.202,571.324 M513.02,511.204
			l-341.754,0.396c1.389,126.268,69.686,236.65,170.97,297.577L513.612,511.67l-0.861,0.001L513.02,511.204L513.02,511.204z"/>
	</g>
	<g>
		<g>
			<path fill="#5E5F6B" d="M788.391,571.328c-1.169,5.242-2.483,10.446-3.941,15.607c-6.751,23.902-16.592,46.902-29.247,68.363
				c-14.589,24.736-32.798,47.205-53.855,66.631l-87.03-150.399L788.391,571.328 M855.384,511.251l-345.039,0.399l172.679,298.41
				C784.9,749.458,853.988,638.844,855.384,511.251L855.384,511.251z"/>
		</g>
	</g>
</g>
</svg>
