<?xml version="1.0" encoding="utf-8"?>
<!-- Generator: Adobe Illustrator 16.0.0, SVG Export Plug-In . SVG Version: 6.00 Build 0)  -->
<!DOCTYPE svg PUBLIC "-//W3C//DTD SVG 1.1//EN" "http://www.w3.org/Graphics/SVG/1.1/DTD/svg11.dtd">
<svg version="1.1" id="图层_1" xmlns="http://www.w3.org/2000/svg" xmlns:xlink="http://www.w3.org/1999/xlink" x="0px" y="0px"
	 width="1024px" height="1024px" viewBox="0 0 1024 1024" enable-background="new 0 0 1024 1024" xml:space="preserve">
<rect display="none" fill="#FFFFFF" stroke="#000000" stroke-miterlimit="10" width="1024" height="1024.001"/>
<g display="none">
	<path display="inline" fill-rule="evenodd" clip-rule="evenodd" fill="#5E616C" d="M879.852,653.402
		c-79.605,0-144.148-62.627-144.148-139.902c0-77.275,64.543-139.925,144.148-139.925c79.627,0,144.148,62.65,144.148,139.925
		C1024,590.775,959.479,653.402,879.852,653.402z M879.852,303.614c-79.605,0-144.148-62.629-144.148-139.904
		c0-77.275,64.543-139.925,144.148-139.925c79.627,0,144.148,62.649,144.148,139.925C1024,240.984,959.479,303.614,879.852,303.614z
		 M513.881,1003.215c-79.607,0-144.149-62.648-144.149-139.924c0-77.257,64.542-139.907,144.149-139.907
		c79.605,0,144.148,62.65,144.148,139.907C658.029,940.566,593.486,1003.215,513.881,1003.215z M513.881,653.402
		c-79.607,0-144.149-62.627-144.149-139.902c0-77.275,64.542-139.925,144.149-139.925c79.605,0,144.148,62.65,144.148,139.925
		C658.029,590.775,593.486,653.402,513.881,653.402z M513.881,303.614c-79.607,0-144.149-62.629-144.149-139.904
		c0-77.275,64.542-139.925,144.149-139.925c79.605,0,144.148,62.649,144.148,139.925
		C658.029,240.984,593.486,303.614,513.881,303.614z M147.909,1003.215c-79.626,0-144.147-62.648-144.147-139.924
		c0-77.257,64.521-139.907,144.147-139.907c79.606,0,144.15,62.65,144.15,139.907C292.06,940.566,227.516,1003.215,147.909,1003.215
		z M147.909,653.402c-79.626,0-144.147-62.627-144.147-139.902c0-77.275,64.521-139.925,144.147-139.925
		c79.606,0,144.15,62.65,144.15,139.925C292.06,590.775,227.516,653.402,147.909,653.402z M147.909,303.614
		c-79.626,0-144.147-62.629-144.147-139.904c0-77.275,64.521-139.925,144.147-139.925c79.606,0,144.15,62.649,144.15,139.925
		C292.06,240.984,227.516,303.614,147.909,303.614z M879.852,723.384c79.627,0,144.148,62.65,144.148,139.907
		c0,77.275-64.521,139.924-144.148,139.924c-79.605,0-144.148-62.648-144.148-139.924
		C735.703,786.034,800.246,723.384,879.852,723.384z"/>
</g>
<g display="none">
	<path display="inline" fill-rule="evenodd" clip-rule="evenodd" fill="#ED6A1A" d="M879.852,652.402
		c-79.605,0-144.148-62.627-144.148-139.902c0-77.275,64.543-139.925,144.148-139.925c79.627,0,144.148,62.65,144.148,139.925
		C1024,589.775,959.479,652.402,879.852,652.402z M879.852,302.614c-79.605,0-144.148-62.629-144.148-139.904
		c0-77.275,64.543-139.925,144.148-139.925c79.627,0,144.148,62.649,144.148,139.925C1024,239.984,959.479,302.614,879.852,302.614z
		 M513.881,1002.215c-79.607,0-144.149-62.648-144.149-139.924c0-77.257,64.542-139.907,144.149-139.907
		c79.605,0,144.148,62.65,144.148,139.907C658.029,939.566,593.486,1002.215,513.881,1002.215z M513.881,652.402
		c-79.607,0-144.149-62.627-144.149-139.902c0-77.275,64.542-139.925,144.149-139.925c79.605,0,144.148,62.65,144.148,139.925
		C658.029,589.775,593.486,652.402,513.881,652.402z M513.881,302.614c-79.607,0-144.149-62.629-144.149-139.904
		c0-77.275,64.542-139.925,144.149-139.925c79.605,0,144.148,62.649,144.148,139.925
		C658.029,239.984,593.486,302.614,513.881,302.614z M147.909,1002.215c-79.626,0-144.147-62.648-144.147-139.924
		c0-77.257,64.521-139.907,144.147-139.907c79.606,0,144.15,62.65,144.15,139.907C292.06,939.566,227.516,1002.215,147.909,1002.215
		z M147.909,652.402c-79.626,0-144.147-62.627-144.147-139.902c0-77.275,64.521-139.925,144.147-139.925
		c79.606,0,144.15,62.65,144.15,139.925C292.06,589.775,227.516,652.402,147.909,652.402z M147.909,302.614
		c-79.626,0-144.147-62.629-144.147-139.904c0-77.275,64.521-139.925,144.147-139.925c79.606,0,144.15,62.649,144.15,139.925
		C292.06,239.984,227.516,302.614,147.909,302.614z M879.852,722.384c79.627,0,144.148,62.65,144.148,139.907
		c0,77.275-64.521,139.924-144.148,139.924c-79.605,0-144.148-62.648-144.148-139.924
		C735.703,785.034,800.246,722.384,879.852,722.384z"/>
</g>
<g>
	<path fill="#5E616C" d="M0.747,61.233v900.534c0,33.485,27.34,60.646,61.045,60.646h75.414V0.587H61.792
		C28.087,0.587,0.747,27.728,0.747,61.233z M190.01,0.587v1021.826h690.916V0.587H190.01z M799.884,754.884H270.951
		c-0.439-22.511,1.177-63.081,1.177-80.243c8.781-25.284,37.856-28.916,62.144-39.094c26.661-11.176,56.235-24.146,82.837-34.983
		c7.583-2.055,15.187-4.11,22.77-6.166c9.08-6.206,17.94-26.801,22.79-37.038l10.776-2.595
		c-2.435-13.53-10.856-14.588-14.368-24.146c-1.377-14.389-2.774-28.797-4.151-43.205c0.061,0.679-9.918-1.815-11.215-2.614
		c-14.069-8.761-14.349-44.322-15.705-59.109c-0.619-6.765,8.84-12.313,6.206-24.686c-15.406-72.58,6.665-106.525,41.588-117.78
		c24.227-9.758,69.467-27.858,111.654-2.075l10.477,9.639l16.942,2.914c8.502,4.869,13.93,21.033,13.93,21.033
		c4.47,17.86,4.909,19.357,4.49,37.697c-0.16,7.063-4.251,39.731-3.134,49.75c0.918,8.281,2.994,8.94,6.267,15.745
		c5.728,11.854,3.812,28.197,1.616,40.171c-1.197,6.526-3.731,15.846-7.583,21.174c-4.251,5.887-12.752,5.927-16.504,12.812
		c-5.428,9.878-2.375,23.748-5.787,34.424c-3.871,12.113-13.75,12.952-14.488,28.797c4.83,0.698,9.659,1.377,14.488,2.056
		c4.85,10.237,13.729,30.832,22.79,37.038c7.583,2.056,15.187,4.111,22.789,6.166c26.602,10.837,56.156,23.808,82.838,34.983
		c24.267,10.178,53.342,13.81,62.123,39.094C798.707,691.803,800.343,732.373,799.884,754.884z"/>
	<path fill="#5E616C" d="M1022.254,234.671H928.88V0.587h93.374V234.671z"/>
	<path fill="#5E616C" d="M1022.254,530.299H928.88V296.215h93.374V530.299z"/>
	<path fill="#5E616C" d="M1022.254,825.927H928.88V591.843h93.374V825.927z"/>
	<path fill="#5E616C" d="M0.747,61.233v900.534c0,33.485,27.34,60.646,61.045,60.646h75.414V0.587H61.792
		C28.087,0.587,0.747,27.728,0.747,61.233z"/>
</g>
</svg>
